<svg width="1000" height="1002" viewBox="0 0 1000 1002" fill="none" xmlns="http://www.w3.org/2000/svg">
<ellipse cx="500.592" cy="499.755" rx="467.219" ry="467.686" fill="#252525"/>
<g filter="url(#filter0_i_324_8)">
<path d="M996.923 556.499C969.073 806.85 756.962 1001.51 499.43 1001.51C241.792 1001.51 29.6107 806.669 1.90148 556.167C0.628243 544.657 9.82758 534.834 21.4084 534.838L977.43 535.157C989.01 535.161 998.203 544.99 996.923 556.499Z" fill="#F8F8F8"/>
</g>
<path d="M499.43 991.514C751.802 991.514 959.69 800.745 986.984 555.393C987.575 550.085 983.331 545.159 977.427 545.157L21.405 544.838C15.5006 544.836 11.2536 549.758 11.8409 555.068C38.9968 800.567 246.954 991.514 499.43 991.514Z" stroke="#252525" stroke-width="20"/>
<path d="M500.592 9.99902C752.964 9.99902 960.852 200.769 988.146 446.12C988.736 451.429 984.492 456.354 978.588 456.356L22.5667 456.676C16.6623 456.678 12.4152 451.755 13.0025 446.446C40.1584 200.946 248.116 9.99902 500.592 9.99902Z" fill="#FF4C41" stroke="#252525" stroke-width="20"/>
<ellipse cx="500.592" cy="499.755" rx="183.55" ry="183.734" fill="#252525"/>
<g filter="url(#filter1_d_324_8)">
<ellipse cx="500.592" cy="499.755" rx="116.805" ry="116.922" fill="#F8F8F8"/>
<path d="M616.897 499.755C616.897 564.053 564.825 616.176 500.592 616.176C436.359 616.176 384.287 564.053 384.287 499.755C384.287 435.456 436.359 383.333 500.592 383.333C564.825 383.333 616.897 435.456 616.897 499.755Z" stroke="black"/>
</g>
<g filter="url(#filter2_d_324_8)">
<ellipse cx="500.592" cy="499.755" rx="83.432" ry="83.5154" fill="#F8F8F8"/>
<path d="M574.024 499.755C574.024 540.366 541.138 573.27 500.592 573.27C460.046 573.27 427.16 540.366 427.16 499.755C427.16 459.144 460.046 426.24 500.592 426.24C541.138 426.24 574.024 459.144 574.024 499.755Z" stroke="#252525" stroke-width="20"/>
</g>
<rect width="1000" height="1001.52" rx="500" fill="#072AC8" fill-opacity="0.6"/>
<defs>
<filter id="filter0_i_324_8" x="1.78345" y="534.838" width="995.259" height="466.677" filterUnits="userSpaceOnUse" color-interpolation-filters="sRGB">
<feFlood flood-opacity="0" result="BackgroundImageFix"/>
<feBlend mode="normal" in="SourceGraphic" in2="BackgroundImageFix" result="shape"/>
<feColorMatrix in="SourceAlpha" type="matrix" values="0 0 0 0 0 0 0 0 0 0 0 0 0 0 0 0 0 0 127 0" result="hardAlpha"/>
<feOffset dx="-50" dy="-20"/>
<feComposite in2="hardAlpha" operator="arithmetic" k2="-1" k3="1"/>
<feColorMatrix type="matrix" values="0 0 0 0 0 0 0 0 0 0 0 0 0 0 0 0 0 0 0.25 0"/>
<feBlend mode="normal" in2="shape" result="effect1_innerShadow_324_8"/>
</filter>
<filter id="filter1_d_324_8" x="379.787" y="382.833" width="241.61" height="241.843" filterUnits="userSpaceOnUse" color-interpolation-filters="sRGB">
<feFlood flood-opacity="0" result="BackgroundImageFix"/>
<feColorMatrix in="SourceAlpha" type="matrix" values="0 0 0 0 0 0 0 0 0 0 0 0 0 0 0 0 0 0 127 0" result="hardAlpha"/>
<feOffset dy="4"/>
<feGaussianBlur stdDeviation="2"/>
<feComposite in2="hardAlpha" operator="out"/>
<feColorMatrix type="matrix" values="0 0 0 0 0 0 0 0 0 0 0 0 0 0 0 0 0 0 0.25 0"/>
<feBlend mode="normal" in2="BackgroundImageFix" result="effect1_dropShadow_324_8"/>
<feBlend mode="normal" in="SourceGraphic" in2="effect1_dropShadow_324_8" result="shape"/>
</filter>
<filter id="filter2_d_324_8" x="417.16" y="416.24" width="176.864" height="177.031" filterUnits="userSpaceOnUse" color-interpolation-filters="sRGB">
<feFlood flood-opacity="0" result="BackgroundImageFix"/>
<feColorMatrix in="SourceAlpha" type="matrix" values="0 0 0 0 0 0 0 0 0 0 0 0 0 0 0 0 0 0 127 0" result="hardAlpha"/>
<feOffset dx="10" dy="10"/>
<feColorMatrix type="matrix" values="0 0 0 0 0 0 0 0 0 0 0 0 0 0 0 0 0 0 0.25 0"/>
<feBlend mode="normal" in2="BackgroundImageFix" result="effect1_dropShadow_324_8"/>
<feBlend mode="normal" in="SourceGraphic" in2="effect1_dropShadow_324_8" result="shape"/>
</filter>
</defs>
</svg>
